<svg xmlns="http://www.w3.org/2000/svg" width="13.039" height="15.045" viewBox="0 0 13.039 15.045">
  <g id="Group_117" data-name="Group 117" transform="translate(-6 -2)">
    <path id="Path_416" data-name="Path 416" d="M17.535,2H10.514a.5.5,0,0,0-.094.009h-.006a.5.5,0,0,0-.119.043l-.03.016a.5.5,0,0,0-.106.078L6.147,6.159a.5.5,0,0,0-.078.106l-.015.029a.5.5,0,0,0-.043.121h0a.5.5,0,0,0-.01.1v9.027a1.506,1.506,0,0,0,1.5,1.5h10.03a1.506,1.506,0,0,0,1.5-1.5V3.5a1.506,1.506,0,0,0-1.5-1.5ZM10.012,3.712v1.8a.5.5,0,0,1-.5.5h-1.8Zm8.024,11.828a.5.5,0,0,1-.5.5H7.5a.5.5,0,0,1-.5-.5V7.015H9.511a1.506,1.506,0,0,0,1.5-1.5V3h6.52a.5.5,0,0,1,.5.5Z" fill="#2a2ac0"/>
    <path id="Path_417" data-name="Path 417" d="M29.514,32H25.5a.5.5,0,0,0,0,1h4.012a.5.5,0,0,0,0-1Z" transform="translate(-14.236 -22.477)" fill="#2a2ac0"/>
    <path id="Path_418" data-name="Path 418" d="M25.018,44H19.5a.5.5,0,0,0,0,1h5.517a.5.5,0,1,0,0-1Z" transform="translate(-9.74 -31.468)" fill="#2a2ac0"/>
  </g>
</svg>
