<svg id="Group_133" data-name="Group 133" xmlns="http://www.w3.org/2000/svg" width="16.441" height="20.62" viewBox="0 0 16.441 20.62">
  <path id="Path" d="M122.786,25.633h0a2.817,2.817,0,0,0,0-5.633h0a2.817,2.817,0,1,0,0,5.633Z" transform="translate(-117.701 -20)" fill="#2a2ac0"/>
  <path id="Path-2" data-name="Path" d="M304.708,312.744a1.354,1.354,0,1,0-2.708,0v.6h2.708Z" transform="translate(-291.781 -298.63)" fill="#2a2ac0"/>
  <path id="Path-3" data-name="Path" d="M330.529,411.212a.307.307,0,0,1,.091.014.1.1,0,1,0-.126-.011Z" transform="translate(-319 -393.962)" fill="#2a2ac0"/>
  <path id="Path-4" data-name="Path" d="M74.159,199.326A5.47,5.47,0,0,1,78.02,194.1a4.321,4.321,0,0,0-4.127-3.1H72.287A4.3,4.3,0,0,0,68,195.313v4.726h6.2A6.059,6.059,0,0,1,74.159,199.326Z" transform="translate(-68 -183.532)" fill="#2a2ac0"/>
  <path id="Compound_Path" data-name="Compound Path" d="M281.568,374.668h3.406a.568.568,0,0,0,.568-.568v-2.533a.568.568,0,0,0-.568-.568h-3.406a.568.568,0,0,0-.568.568V374.1A.568.568,0,0,0,281.568,374.668Zm1.694-2.531a.713.713,0,0,1,.271,1.372v.373a.306.306,0,1,1-.611,0v-.405a.713.713,0,0,1,.34-1.339Z" transform="translate(-271.698 -355.672)" fill="#2a2ac0"/>
  <path id="Compound_Path-2" data-name="Compound Path" d="M223.049,275.577a4.835,4.835,0,1,0,4.835-4.835A4.835,4.835,0,0,0,223.049,275.577Zm1.919.107a1.188,1.188,0,0,1,.917-1.145v-.632a1.965,1.965,0,1,1,3.93,0v.632a1.188,1.188,0,0,1,.917,1.145v2.522a1.193,1.193,0,0,1-1.179,1.194h-3.407a1.193,1.193,0,0,1-1.179-1.194Z" transform="translate(-216.278 -259.792)" fill="#2a2ac0"/>
</svg>
