<svg xmlns="http://www.w3.org/2000/svg" width="17.557" height="16.386" viewBox="0 0 17.557 16.386">
  <g id="Group_127" data-name="Group 127" transform="translate(18 -962.362)">
    <path id="Path_420" data-name="Path 420" d="M5.39,960.362a.39.39,0,0,0-.39.39v15.606a.39.39,0,0,0,.39.39H22.166a.39.39,0,1,0,0-.78H5.78V960.752A.39.39,0,0,0,5.39,960.362ZM19.63,962.9a1.371,1.371,0,0,0-1.366,1.366,1.34,1.34,0,0,0,.28.817l-2.316,3.31a1.4,1.4,0,0,0-1.28.378l-1.634-.951a1.329,1.329,0,0,0,.073-.433,1.366,1.366,0,0,0-2.731,0,1.34,1.34,0,0,0,.28.817l-2.316,3.31a1.354,1.354,0,0,0-.3-.03,1.363,1.363,0,1,0,.981.414l2.262-3.231a1.323,1.323,0,0,0,1.3-.213l1.725,1.006a1.353,1.353,0,0,0-.03.268,1.366,1.366,0,1,0,2.347-.951l2.262-3.231a1.347,1.347,0,0,0,.463.085,1.366,1.366,0,1,0,0-2.731Zm0,.78a.585.585,0,1,1-.585.585A.579.579,0,0,1,19.63,963.678ZM12.023,966.8a.585.585,0,1,1-.585.585A.579.579,0,0,1,12.023,966.8Zm3.9,2.341a.585.585,0,1,1-.585.585A.579.579,0,0,1,15.924,969.14Zm-7.608,3.121a.585.585,0,1,1-.585.585A.579.579,0,0,1,8.316,972.262Z" transform="translate(-23 2)" fill="#2a2ac0"/>
  </g>
</svg>
