<svg xmlns="http://www.w3.org/2000/svg" width="16.713" height="16.713" viewBox="0 0 16.713 16.713">
  <g id="Group_1371" data-name="Group 1371" transform="translate(-12.4 -12.4)">
    <path id="Path_503" data-name="Path 503" d="M20.757,12.4a8.357,8.357,0,1,0,8.357,8.357A8.347,8.347,0,0,0,20.757,12.4Zm7.2,8.89a7.223,7.223,0,1,1,0-1.111l-.222.022a6.946,6.946,0,1,0,0,1.222H22.379v3.334H19.134v-6.8h3.245v2.711h-.222V19.69h-2.8v3.223h2.8V21.179h5.8Zm-4.978-4.823v1.311H18.534V16.467Z" fill="#2a2ac0"/>
    <rect id="Rectangle_615" data-name="Rectangle 615" width="2.8" height="1.289" transform="translate(19.356 18.179)" fill="#2a2ac0"/>
    <rect id="Rectangle_616" data-name="Rectangle 616" width="2.8" height="1.422" transform="translate(19.356 23.112)" fill="#2a2ac0"/>
    <rect id="Rectangle_617" data-name="Rectangle 617" width="4.001" height="0.867" transform="translate(18.756 16.689)" fill="#2a2ac0"/>
  </g>
</svg>
