<svg xmlns="http://www.w3.org/2000/svg" width="30" height="30" viewBox="0 0 30 30">
  <g id="Group_134" data-name="Group 134" transform="translate(-205 -699)">
    <path id="Path_495" data-name="Path 495" d="M17.64,9.68A5.91,5.91,0,0,0,16,9.44a5.65,5.65,0,0,0-1.66.25,5.75,5.75,0,0,0-4.08,5.49V23H21.74V15.18A5.75,5.75,0,0,0,17.64,9.68Zm-6,11.87V15.18a4.32,4.32,0,0,1,8.64,0v6.37Z" transform="translate(204 698)" fill="#181461"/>
    <path id="Path_496" data-name="Path 496" d="M23.77,22.26a.7.7,0,0,1-.7.71H8.93a.71.71,0,1,1,0-1.42H23.07a.7.7,0,0,1,.7.71Z" transform="translate(204 698)" fill="#181461"/>
    <path id="Path_497" data-name="Path 497" d="M17.51,21.55V22a1.5,1.5,0,0,1-.39,1,1.53,1.53,0,0,1-2.24,0,1.5,1.5,0,0,1-.39-1v-.4H13.08V22a2.92,2.92,0,0,0,5.84,0v-.4Z" transform="translate(204 698)" fill="#181461"/>
    <path id="Path_498" data-name="Path 498" d="M16,7.12a1.83,1.83,0,0,0-1.82,1.82,1.72,1.72,0,0,0,.17.75,1.81,1.81,0,0,0,3.3,0,1.68,1.68,0,0,0,.17-.74A1.83,1.83,0,0,0,16,7.12Zm0,1.42a.39.39,0,0,1,.4.4.4.4,0,1,1-.8,0,.39.39,0,0,1,.4-.4Z" transform="translate(204 698)" fill="#181461"/>
    <path id="Path_499" data-name="Path 499" d="M16,31A15,15,0,1,1,31,16,15,15,0,0,1,16,31ZM16,3A13,13,0,1,0,29,16,13,13,0,0,0,16,3Z" transform="translate(204 698)" fill="#181461"/>
  </g>
</svg>
